<svg width="251" height="248" viewBox="0 0 251 248" fill="none" xmlns="http://www.w3.org/2000/svg">
<path d="M75.1871 199.98C62.3831 199.98 51.4271 197.01 42.3191 191.07C33.3431 185.13 26.4791 176.814 21.7271 166.122C17.1071 155.43 14.7971 142.956 14.7971 128.7C14.7971 114.444 17.1071 101.97 21.7271 91.278C26.4791 80.586 33.3431 72.27 42.3191 66.33C51.4271 60.39 62.3831 57.42 75.1871 57.42C87.8591 57.42 98.6171 60.39 107.461 66.33C116.437 72.27 123.169 80.586 127.657 91.278C132.277 101.97 134.587 114.444 134.587 128.7C134.587 142.956 132.277 155.43 127.657 166.122C123.169 176.814 116.437 185.13 107.461 191.07C98.6171 197.01 87.8591 199.98 75.1871 199.98ZM75.1871 177.408C86.1431 177.408 94.6571 173.184 100.729 164.736C106.801 156.156 109.837 144.144 109.837 128.7C109.837 113.124 106.801 101.046 100.729 92.466C94.6571 83.886 86.1431 79.596 75.1871 79.596C63.9671 79.596 55.1891 83.886 48.8531 92.466C42.5171 101.046 39.3491 113.124 39.3491 128.7C39.3491 144.144 42.5171 156.156 48.8531 164.736C55.1891 173.184 63.9671 177.408 75.1871 177.408ZM182.291 188.298V75.834L190.013 82.368L158.135 99L151.403 77.022L188.429 57.42H207.833V188.298H182.291ZM154.769 198V174.24H232.781V198H154.769Z" fill="#F3F3F3"/>
<path d="M61.268 134V124.9H62.672V134H61.268ZM61.801 130.204V128.852H67.456V130.204H61.801ZM61.905 126.252V124.9H68.041V126.252H61.905ZM73.1494 134.13C72.3347 134.13 71.6111 133.983 70.9784 133.688C70.3457 133.385 69.8517 132.973 69.4964 132.453C69.1411 131.924 68.9634 131.326 68.9634 130.659C68.9634 130.104 69.0674 129.606 69.2754 129.164C69.4834 128.713 69.7737 128.332 70.1464 128.02C70.5191 127.699 70.9524 127.452 71.4464 127.279C71.9404 127.106 72.4691 127.019 73.0324 127.019C73.5437 127.019 74.0247 127.101 74.4754 127.266C74.9261 127.431 75.3204 127.66 75.6584 127.955C75.9964 128.25 76.2564 128.601 76.4384 129.008C76.6204 129.407 76.7071 129.849 76.6984 130.334L76.6854 130.984H70.0944L69.7954 129.918H75.5284L75.3334 130.061V129.749C75.2987 129.454 75.1687 129.194 74.9434 128.969C74.7181 128.744 74.4364 128.57 74.0984 128.449C73.7691 128.319 73.4137 128.254 73.0324 128.254C72.4951 128.254 72.0184 128.336 71.6024 128.501C71.1864 128.657 70.8614 128.908 70.6274 129.255C70.4021 129.593 70.2894 130.031 70.2894 130.568C70.2894 131.036 70.4151 131.448 70.6664 131.803C70.9264 132.15 71.2861 132.418 71.7454 132.609C72.2134 132.8 72.7464 132.895 73.3444 132.895C73.8904 132.895 74.3541 132.821 74.7354 132.674C75.1254 132.518 75.4721 132.327 75.7754 132.102L76.3994 133.09C76.1654 133.281 75.8707 133.454 75.5154 133.61C75.1687 133.766 74.7874 133.892 74.3714 133.987C73.9641 134.082 73.5567 134.13 73.1494 134.13ZM81.3953 134.13C80.6933 134.13 80.0693 133.978 79.5233 133.675C78.9773 133.363 78.5483 132.938 78.2363 132.401C77.9329 131.864 77.7813 131.257 77.7813 130.581C77.7813 129.888 77.9416 129.277 78.2623 128.748C78.5829 128.211 79.0206 127.79 79.5753 127.487C80.1386 127.184 80.7799 127.032 81.4993 127.032C81.9326 127.032 82.3356 127.088 82.7083 127.201C83.0809 127.314 83.4059 127.465 83.6833 127.656C83.9606 127.838 84.1816 128.046 84.3463 128.28C84.5109 128.505 84.5976 128.735 84.6063 128.969L84.2553 128.943V127.175H85.6073V134H84.2553V132.232L84.5413 132.245C84.5239 132.462 84.4243 132.683 84.2423 132.908C84.0689 133.125 83.8349 133.328 83.5403 133.519C83.2543 133.701 82.9249 133.848 82.5523 133.961C82.1883 134.074 81.8026 134.13 81.3953 134.13ZM81.7203 132.895C82.2316 132.895 82.6823 132.795 83.0723 132.596C83.4623 132.388 83.7656 132.111 83.9823 131.764C84.1989 131.409 84.3073 131.014 84.3073 130.581C84.3073 130.139 84.1989 129.745 83.9823 129.398C83.7656 129.051 83.4623 128.778 83.0723 128.579C82.6823 128.38 82.2316 128.28 81.7203 128.28C81.2176 128.28 80.7713 128.38 80.3813 128.579C79.9999 128.778 79.6966 129.051 79.4713 129.398C79.2546 129.745 79.1463 130.139 79.1463 130.581C79.1463 131.014 79.2546 131.409 79.4713 131.764C79.6966 132.111 79.9999 132.388 80.3813 132.596C80.7713 132.795 81.2176 132.895 81.7203 132.895ZM89.1053 134V125.212H90.4443V134H89.1053ZM87.2463 128.475V127.175H92.6153V128.475H87.2463ZM97.1509 134.13C96.5962 134.13 96.1109 134.004 95.6949 133.753C95.2875 133.493 94.9669 133.125 94.7329 132.648C94.5075 132.171 94.3949 131.604 94.3949 130.945V127.175H95.7339V130.516C95.7339 131.019 95.8032 131.448 95.9419 131.803C96.0892 132.15 96.3059 132.414 96.5919 132.596C96.8865 132.778 97.2549 132.869 97.6969 132.869C98.0002 132.869 98.2862 132.821 98.5549 132.726C98.8235 132.622 99.0575 132.479 99.2569 132.297C99.4649 132.115 99.6252 131.894 99.7379 131.634C99.8592 131.374 99.9199 131.088 99.9199 130.776V127.175H101.259V134H99.9199V132.57L100.154 132.414C100.041 132.7 99.8462 132.977 99.5689 133.246C99.2915 133.506 98.9449 133.718 98.5289 133.883C98.1215 134.048 97.6622 134.13 97.1509 134.13ZM103.851 134V127.175H105.203V129.515L104.93 129.242C105.043 128.835 105.238 128.466 105.515 128.137C105.801 127.799 106.126 127.53 106.49 127.331C106.863 127.132 107.248 127.032 107.647 127.032C107.89 127.032 108.124 127.058 108.349 127.11C108.583 127.162 108.765 127.227 108.895 127.305L108.544 128.722C108.388 128.635 108.202 128.57 107.985 128.527C107.777 128.475 107.578 128.449 107.387 128.449C107.066 128.449 106.772 128.505 106.503 128.618C106.243 128.731 106.013 128.882 105.814 129.073C105.623 129.264 105.472 129.476 105.359 129.71C105.255 129.944 105.203 130.191 105.203 130.451V134H103.851ZM113.533 134.13C112.719 134.13 111.995 133.983 111.362 133.688C110.73 133.385 110.236 132.973 109.88 132.453C109.525 131.924 109.347 131.326 109.347 130.659C109.347 130.104 109.451 129.606 109.659 129.164C109.867 128.713 110.158 128.332 110.53 128.02C110.903 127.699 111.336 127.452 111.83 127.279C112.324 127.106 112.853 127.019 113.416 127.019C113.928 127.019 114.409 127.101 114.859 127.266C115.31 127.431 115.704 127.66 116.042 127.955C116.38 128.25 116.64 128.601 116.822 129.008C117.004 129.407 117.091 129.849 117.082 130.334L117.069 130.984H110.478L110.179 129.918H115.912L115.717 130.061V129.749C115.683 129.454 115.553 129.194 115.327 128.969C115.102 128.744 114.82 128.57 114.482 128.449C114.153 128.319 113.798 128.254 113.416 128.254C112.879 128.254 112.402 128.336 111.986 128.501C111.57 128.657 111.245 128.908 111.011 129.255C110.786 129.593 110.673 130.031 110.673 130.568C110.673 131.036 110.799 131.448 111.05 131.803C111.31 132.15 111.67 132.418 112.129 132.609C112.597 132.8 113.13 132.895 113.728 132.895C114.274 132.895 114.738 132.821 115.119 132.674C115.509 132.518 115.856 132.327 116.159 132.102L116.783 133.09C116.549 133.281 116.255 133.454 115.899 133.61C115.553 133.766 115.171 133.892 114.755 133.987C114.348 134.082 113.941 134.13 113.533 134.13ZM121.532 134.13C120.83 134.13 120.189 134.03 119.608 133.831C119.036 133.632 118.559 133.311 118.178 132.869L119.088 132.063C119.391 132.375 119.742 132.613 120.141 132.778C120.548 132.934 120.999 133.012 121.493 133.012C121.684 133.012 121.879 132.999 122.078 132.973C122.277 132.947 122.459 132.899 122.624 132.83C122.797 132.761 122.932 132.67 123.027 132.557C123.131 132.444 123.183 132.31 123.183 132.154C123.183 131.894 123.01 131.695 122.663 131.556C122.49 131.495 122.282 131.435 122.039 131.374C121.796 131.305 121.519 131.24 121.207 131.179C120.687 131.066 120.232 130.945 119.842 130.815C119.452 130.685 119.136 130.516 118.893 130.308C118.711 130.143 118.572 129.957 118.477 129.749C118.382 129.532 118.334 129.285 118.334 129.008C118.334 128.705 118.412 128.436 118.568 128.202C118.724 127.959 118.936 127.751 119.205 127.578C119.482 127.396 119.803 127.262 120.167 127.175C120.531 127.08 120.925 127.032 121.35 127.032C121.723 127.032 122.1 127.071 122.481 127.149C122.871 127.227 123.239 127.348 123.586 127.513C123.933 127.678 124.223 127.881 124.457 128.124L123.729 129.008C123.521 128.843 123.283 128.696 123.014 128.566C122.745 128.427 122.468 128.323 122.182 128.254C121.905 128.176 121.64 128.137 121.389 128.137C121.181 128.137 120.977 128.15 120.778 128.176C120.579 128.202 120.392 128.25 120.219 128.319C120.054 128.38 119.92 128.466 119.816 128.579C119.721 128.683 119.673 128.809 119.673 128.956C119.682 129.06 119.712 129.16 119.764 129.255C119.825 129.342 119.907 129.42 120.011 129.489C120.167 129.593 120.384 129.688 120.661 129.775C120.947 129.853 121.272 129.927 121.636 129.996C122.095 130.083 122.516 130.187 122.897 130.308C123.278 130.429 123.595 130.581 123.846 130.763C124.063 130.91 124.223 131.088 124.327 131.296C124.44 131.495 124.496 131.729 124.496 131.998C124.496 132.44 124.362 132.821 124.093 133.142C123.833 133.463 123.478 133.71 123.027 133.883C122.576 134.048 122.078 134.13 121.532 134.13Z" fill="#9B9B9B"/>
</svg>
