<svg width="263" height="248" viewBox="0 0 263 248" fill="none" xmlns="http://www.w3.org/2000/svg">
<path d="M75.0963 199.98C62.2923 199.98 51.3363 197.01 42.2283 191.07C33.2523 185.13 26.3883 176.814 21.6363 166.122C17.0163 155.43 14.7063 142.956 14.7063 128.7C14.7063 114.444 17.0163 101.97 21.6363 91.278C26.3883 80.586 33.2523 72.27 42.2283 66.33C51.3363 60.39 62.2923 57.42 75.0963 57.42C87.7683 57.42 98.5263 60.39 107.37 66.33C116.346 72.27 123.078 80.586 127.566 91.278C132.186 101.97 134.496 114.444 134.496 128.7C134.496 142.956 132.186 155.43 127.566 166.122C123.078 176.814 116.346 185.13 107.37 191.07C98.5263 197.01 87.7683 199.98 75.0963 199.98ZM75.0963 177.408C86.0523 177.408 94.5663 173.184 100.638 164.736C106.71 156.156 109.746 144.144 109.746 128.7C109.746 113.124 106.71 101.046 100.638 92.466C94.5663 83.886 86.0523 79.596 75.0963 79.596C63.8763 79.596 55.0983 83.886 48.7623 92.466C42.4263 101.046 39.2583 113.124 39.2583 128.7C39.2583 144.144 42.4263 156.156 48.7623 164.736C55.0983 173.184 63.8763 177.408 75.0963 177.408ZM152.5 198L145.768 180.972L189.526 138.6C192.694 135.432 195.994 132.132 199.426 128.7C202.858 125.268 206.026 121.77 208.93 118.206C211.834 114.642 214.144 111.21 215.86 107.91C217.708 104.478 218.632 101.244 218.632 98.208C218.632 94.512 217.84 91.344 216.256 88.704C214.672 86.064 212.23 84.018 208.93 82.566C205.762 81.114 201.934 80.388 197.446 80.388C193.222 80.388 188.998 81.312 184.774 83.16C180.682 84.876 176.788 87.582 173.092 91.278C169.528 94.842 166.228 99.396 163.192 104.94L144.184 93.06C147.616 85.932 152.104 79.662 157.648 74.25C163.192 68.838 169.528 64.614 176.656 61.578C183.916 58.542 191.836 57.024 200.416 57.024C209.128 57.024 216.784 58.674 223.384 61.974C230.116 65.274 235.33 69.828 239.026 75.636C242.722 81.312 244.57 87.912 244.57 95.436C244.57 99.396 243.91 103.29 242.59 107.118C241.27 110.946 239.422 114.774 237.046 118.602C234.802 122.43 232.096 126.192 228.928 129.888C225.892 133.584 222.592 137.346 219.028 141.174C215.464 144.87 211.768 148.566 207.94 152.262L173.884 184.932L171.112 174.24H249.52V198H152.5Z" fill="#F3F3F3"/>
<path d="M65.2069 134L69.2369 124.9H70.7839L74.8009 134H73.2799L70.6539 128.072C70.5932 127.959 70.5239 127.808 70.4459 127.617C70.3766 127.426 70.2986 127.227 70.2119 127.019C70.1339 126.802 70.0559 126.594 69.9779 126.395C69.9086 126.187 69.8479 126.009 69.7959 125.862L70.1599 125.849C70.0906 126.031 70.0169 126.222 69.9389 126.421C69.8696 126.62 69.7959 126.824 69.7179 127.032C69.6399 127.231 69.5619 127.426 69.4839 127.617C69.4059 127.799 69.3322 127.968 69.2629 128.124L66.6629 134H65.2069ZM66.9749 131.816L67.5079 130.464H72.3569L72.7469 131.816H66.9749ZM80.2902 134.13C79.9089 134.13 79.5406 134.078 79.1852 133.974C78.8299 133.861 78.5136 133.718 78.2362 133.545C77.9589 133.372 77.7292 133.185 77.5472 132.986C77.3652 132.778 77.2482 132.583 77.1962 132.401L77.6772 132.297V133.961H76.3382V124.38H77.6772V128.735L77.3262 128.696C77.3696 128.505 77.4779 128.315 77.6512 128.124C77.8246 127.933 78.0456 127.756 78.3142 127.591C78.5916 127.426 78.8992 127.292 79.2372 127.188C79.5839 127.084 79.9436 127.032 80.3162 127.032C81.0182 127.032 81.6466 127.184 82.2012 127.487C82.7559 127.79 83.1979 128.206 83.5272 128.735C83.8566 129.264 84.0212 129.875 84.0212 130.568C84.0212 131.253 83.8566 131.864 83.5272 132.401C83.2066 132.938 82.7646 133.363 82.2012 133.675C81.6466 133.978 81.0096 134.13 80.2902 134.13ZM80.1342 132.895C80.6369 132.895 81.0832 132.795 81.4732 132.596C81.8632 132.388 82.1666 132.111 82.3832 131.764C82.6086 131.409 82.7212 131.01 82.7212 130.568C82.7212 130.126 82.6086 129.732 82.3832 129.385C82.1666 129.038 81.8632 128.765 81.4732 128.566C81.0919 128.367 80.6456 128.267 80.1342 128.267C79.6316 128.267 79.1852 128.367 78.7952 128.566C78.4052 128.765 78.0976 129.038 77.8722 129.385C77.6469 129.732 77.5342 130.126 77.5342 130.568C77.5342 131.01 77.6469 131.409 77.8722 131.764C78.0976 132.111 78.4052 132.388 78.7952 132.596C79.1852 132.795 79.6316 132.895 80.1342 132.895ZM89.1294 134.13C88.3408 134.13 87.6388 133.978 87.0234 133.675C86.4168 133.372 85.9358 132.951 85.5804 132.414C85.2338 131.877 85.0604 131.266 85.0604 130.581C85.0604 129.888 85.2338 129.277 85.5804 128.748C85.9358 128.211 86.4168 127.79 87.0234 127.487C87.6388 127.184 88.3408 127.032 89.1294 127.032C89.9181 127.032 90.6158 127.184 91.2224 127.487C91.8291 127.79 92.3058 128.211 92.6524 128.748C93.0078 129.277 93.1854 129.888 93.1854 130.581C93.1854 131.266 93.0078 131.877 92.6524 132.414C92.3058 132.951 91.8291 133.372 91.2224 133.675C90.6158 133.978 89.9181 134.13 89.1294 134.13ZM89.1294 132.908C89.6408 132.908 90.1001 132.808 90.5074 132.609C90.9234 132.41 91.2484 132.137 91.4824 131.79C91.7251 131.435 91.8378 131.032 91.8204 130.581C91.8378 130.122 91.7251 129.719 91.4824 129.372C91.2484 129.025 90.9234 128.752 90.5074 128.553C90.1001 128.354 89.6408 128.254 89.1294 128.254C88.6181 128.254 88.1544 128.354 87.7384 128.553C87.3311 128.752 87.0061 129.03 86.7634 129.385C86.5294 129.732 86.4168 130.13 86.4254 130.581C86.4168 131.032 86.5294 131.435 86.7634 131.79C87.0061 132.137 87.3311 132.41 87.7384 132.609C88.1544 132.808 88.6181 132.908 89.1294 132.908ZM97.6794 134.13C97.1247 134.13 96.6394 134.004 96.2234 133.753C95.816 133.493 95.4954 133.125 95.2614 132.648C95.036 132.171 94.9234 131.604 94.9234 130.945V127.175H96.2624V130.516C96.2624 131.019 96.3317 131.448 96.4704 131.803C96.6177 132.15 96.8344 132.414 97.1204 132.596C97.415 132.778 97.7834 132.869 98.2254 132.869C98.5287 132.869 98.8147 132.821 99.0834 132.726C99.352 132.622 99.586 132.479 99.7854 132.297C99.9934 132.115 100.154 131.894 100.266 131.634C100.388 131.374 100.448 131.088 100.448 130.776V127.175H101.787V134H100.448V132.57L100.682 132.414C100.57 132.7 100.375 132.977 100.097 133.246C99.82 133.506 99.4734 133.718 99.0574 133.883C98.65 134.048 98.1907 134.13 97.6794 134.13ZM105.29 134V125.212H106.629V134H105.29ZM103.431 128.475V127.175H108.8V128.475H103.431ZM118.451 134.078C117.628 134.078 116.9 133.905 116.267 133.558C115.643 133.203 115.153 132.717 114.798 132.102C114.451 131.487 114.278 130.793 114.278 130.022V124.887H115.682V129.944C115.682 130.473 115.803 130.949 116.046 131.374C116.297 131.79 116.631 132.119 117.047 132.362C117.472 132.596 117.94 132.713 118.451 132.713C118.988 132.713 119.469 132.596 119.894 132.362C120.327 132.119 120.665 131.79 120.908 131.374C121.159 130.949 121.285 130.473 121.285 129.944V124.887H122.624V130.022C122.624 130.793 122.446 131.487 122.091 132.102C121.744 132.717 121.255 133.203 120.622 133.558C119.998 133.905 119.274 134.078 118.451 134.078ZM127.527 134.13C126.825 134.13 126.184 134.03 125.603 133.831C125.031 133.632 124.554 133.311 124.173 132.869L125.083 132.063C125.386 132.375 125.737 132.613 126.136 132.778C126.543 132.934 126.994 133.012 127.488 133.012C127.679 133.012 127.874 132.999 128.073 132.973C128.272 132.947 128.454 132.899 128.619 132.83C128.792 132.761 128.927 132.67 129.022 132.557C129.126 132.444 129.178 132.31 129.178 132.154C129.178 131.894 129.005 131.695 128.658 131.556C128.485 131.495 128.277 131.435 128.034 131.374C127.791 131.305 127.514 131.24 127.202 131.179C126.682 131.066 126.227 130.945 125.837 130.815C125.447 130.685 125.131 130.516 124.888 130.308C124.706 130.143 124.567 129.957 124.472 129.749C124.377 129.532 124.329 129.285 124.329 129.008C124.329 128.705 124.407 128.436 124.563 128.202C124.719 127.959 124.931 127.751 125.2 127.578C125.477 127.396 125.798 127.262 126.162 127.175C126.526 127.08 126.92 127.032 127.345 127.032C127.718 127.032 128.095 127.071 128.476 127.149C128.866 127.227 129.234 127.348 129.581 127.513C129.928 127.678 130.218 127.881 130.452 128.124L129.724 129.008C129.516 128.843 129.278 128.696 129.009 128.566C128.74 128.427 128.463 128.323 128.177 128.254C127.9 128.176 127.635 128.137 127.384 128.137C127.176 128.137 126.972 128.15 126.773 128.176C126.574 128.202 126.387 128.25 126.214 128.319C126.049 128.38 125.915 128.466 125.811 128.579C125.716 128.683 125.668 128.809 125.668 128.956C125.677 129.06 125.707 129.16 125.759 129.255C125.82 129.342 125.902 129.42 126.006 129.489C126.162 129.593 126.379 129.688 126.656 129.775C126.942 129.853 127.267 129.927 127.631 129.996C128.09 130.083 128.511 130.187 128.892 130.308C129.273 130.429 129.59 130.581 129.841 130.763C130.058 130.91 130.218 131.088 130.322 131.296C130.435 131.495 130.491 131.729 130.491 131.998C130.491 132.44 130.357 132.821 130.088 133.142C129.828 133.463 129.473 133.71 129.022 133.883C128.571 134.048 128.073 134.13 127.527 134.13Z" fill="#9B9B9B"/>
</svg>
