<svg width="265" height="248" viewBox="0 0 265 248" fill="none" xmlns="http://www.w3.org/2000/svg">
<path d="M75.3229 199.98C62.5189 199.98 51.5629 197.01 42.4549 191.07C33.4789 185.13 26.6149 176.814 21.8629 166.122C17.2429 155.43 14.9329 142.956 14.9329 128.7C14.9329 114.444 17.2429 101.97 21.8629 91.278C26.6149 80.586 33.4789 72.27 42.4549 66.33C51.5629 60.39 62.5189 57.42 75.3229 57.42C87.9949 57.42 98.7529 60.39 107.597 66.33C116.573 72.27 123.305 80.586 127.793 91.278C132.413 101.97 134.723 114.444 134.723 128.7C134.723 142.956 132.413 155.43 127.793 166.122C123.305 176.814 116.573 185.13 107.597 191.07C98.7529 197.01 87.9949 199.98 75.3229 199.98ZM75.3229 177.408C86.2789 177.408 94.7929 173.184 100.865 164.736C106.937 156.156 109.973 144.144 109.973 128.7C109.973 113.124 106.937 101.046 100.865 92.466C94.7929 83.886 86.2789 79.596 75.3229 79.596C64.1029 79.596 55.3249 83.886 48.9889 92.466C42.6529 101.046 39.4849 113.124 39.4849 128.7C39.4849 144.144 42.6529 156.156 48.9889 164.736C55.3249 173.184 64.1029 177.408 75.3229 177.408ZM195.099 199.98C182.955 199.98 172.527 197.406 163.815 192.258C155.235 186.978 147.777 179.52 141.441 169.884L160.845 156.024C163.485 159.984 166.521 163.614 169.953 166.914C173.385 170.214 177.147 172.92 181.239 175.032C185.463 177.012 190.215 178.002 195.495 178.002C200.643 178.002 205.527 177.144 210.147 175.428C214.767 173.712 218.529 171.072 221.433 167.508C224.469 163.812 225.987 159.258 225.987 153.846C225.987 148.83 224.733 144.804 222.225 141.768C219.717 138.6 216.417 136.29 212.325 134.838C208.233 133.254 203.877 132.462 199.257 132.462C196.881 132.462 194.505 132.66 192.129 133.056C189.885 133.32 187.707 133.782 185.595 134.442C183.483 135.102 181.305 135.762 179.061 136.422L171.933 120.78L216.879 76.23L219.453 82.17L149.955 81.774V59.004H242.421L247.173 72.072L196.089 122.562L190.149 112.86C191.601 112.332 193.845 111.87 196.881 111.474C199.917 111.078 202.821 110.88 205.593 110.88C211.533 110.88 217.209 111.936 222.621 114.048C228.033 116.16 232.785 119.13 236.877 122.958C241.101 126.654 244.401 131.076 246.777 136.224C249.153 141.372 250.341 146.85 250.341 152.658C250.341 161.898 247.833 170.082 242.817 177.21C237.933 184.338 231.333 189.948 223.017 194.04C214.701 198 205.395 199.98 195.099 199.98Z" fill="#F3F3F3"/>
<path d="M71.6547 134.13C71.074 134.13 70.5367 134.065 70.0427 133.935C69.5487 133.805 69.098 133.61 68.6907 133.35C68.2833 133.09 67.9193 132.761 67.5987 132.362L68.5087 131.218C69.0113 131.816 69.5097 132.241 70.0037 132.492C70.5063 132.743 71.0783 132.869 71.7197 132.869C72.1183 132.869 72.491 132.817 72.8377 132.713C73.193 132.6 73.479 132.444 73.6957 132.245C73.921 132.037 74.0337 131.79 74.0337 131.504C74.0337 131.313 73.9773 131.149 73.8647 131.01C73.7607 130.871 73.6177 130.754 73.4357 130.659C73.2623 130.555 73.0587 130.468 72.8247 130.399C72.5993 130.33 72.3653 130.273 72.1227 130.23C71.88 130.178 71.6417 130.135 71.4077 130.1C70.879 130.013 70.4067 129.901 69.9907 129.762C69.5747 129.615 69.2193 129.433 68.9247 129.216C68.6387 128.991 68.422 128.731 68.2747 128.436C68.1273 128.133 68.0537 127.786 68.0537 127.396C68.0537 126.997 68.1447 126.638 68.3267 126.317C68.5087 125.988 68.7643 125.71 69.0937 125.485C69.423 125.251 69.8087 125.073 70.2507 124.952C70.6927 124.831 71.1737 124.77 71.6937 124.77C72.2397 124.77 72.738 124.831 73.1887 124.952C73.6393 125.073 74.0423 125.255 74.3977 125.498C74.753 125.732 75.0477 126.022 75.2817 126.369L74.3197 127.37C74.1117 127.084 73.869 126.841 73.5917 126.642C73.3143 126.443 73.011 126.291 72.6817 126.187C72.361 126.083 72.0187 126.031 71.6547 126.031C71.2387 126.031 70.8703 126.083 70.5497 126.187C70.2377 126.291 69.9863 126.438 69.7957 126.629C69.6137 126.811 69.5227 127.032 69.5227 127.292C69.5227 127.5 69.5747 127.686 69.6787 127.851C69.7913 128.007 69.9473 128.141 70.1467 128.254C70.346 128.367 70.593 128.462 70.8877 128.54C71.1823 128.618 71.5203 128.687 71.9017 128.748C72.4043 128.826 72.8723 128.93 73.3057 129.06C73.7477 129.181 74.1333 129.337 74.4627 129.528C74.792 129.719 75.0477 129.953 75.2297 130.23C75.4117 130.507 75.5027 130.845 75.5027 131.244C75.5027 131.825 75.3423 132.332 75.0217 132.765C74.7097 133.198 74.2677 133.536 73.6957 133.779C73.1237 134.013 72.4433 134.13 71.6547 134.13ZM78.3737 134V125.212H79.7127V134H78.3737ZM76.5147 128.475V127.175H81.8837V128.475H76.5147ZM83.8063 134V127.175H85.1583V129.515L84.8853 129.242C84.998 128.835 85.193 128.466 85.4703 128.137C85.7563 127.799 86.0813 127.53 86.4453 127.331C86.818 127.132 87.2036 127.032 87.6023 127.032C87.845 127.032 88.079 127.058 88.3043 127.11C88.5383 127.162 88.7203 127.227 88.8503 127.305L88.4993 128.722C88.3433 128.635 88.157 128.57 87.9403 128.527C87.7323 128.475 87.533 128.449 87.3423 128.449C87.0216 128.449 86.727 128.505 86.4583 128.618C86.1983 128.731 85.9686 128.882 85.7693 129.073C85.5786 129.264 85.427 129.476 85.3143 129.71C85.2103 129.944 85.1583 130.191 85.1583 130.451V134H83.8063ZM92.9034 134.13C92.2014 134.13 91.5774 133.978 91.0314 133.675C90.4854 133.363 90.0564 132.938 89.7444 132.401C89.441 131.864 89.2894 131.257 89.2894 130.581C89.2894 129.888 89.4497 129.277 89.7704 128.748C90.091 128.211 90.5287 127.79 91.0834 127.487C91.6467 127.184 92.288 127.032 93.0074 127.032C93.4407 127.032 93.8437 127.088 94.2164 127.201C94.589 127.314 94.914 127.465 95.1914 127.656C95.4687 127.838 95.6897 128.046 95.8544 128.28C96.019 128.505 96.1057 128.735 96.1144 128.969L95.7634 128.943V127.175H97.1154V134H95.7634V132.232L96.0494 132.245C96.032 132.462 95.9324 132.683 95.7504 132.908C95.577 133.125 95.343 133.328 95.0484 133.519C94.7624 133.701 94.433 133.848 94.0604 133.961C93.6964 134.074 93.3107 134.13 92.9034 134.13ZM93.2284 132.895C93.7397 132.895 94.1904 132.795 94.5804 132.596C94.9704 132.388 95.2737 132.111 95.4904 131.764C95.707 131.409 95.8154 131.014 95.8154 130.581C95.8154 130.139 95.707 129.745 95.4904 129.398C95.2737 129.051 94.9704 128.778 94.5804 128.579C94.1904 128.38 93.7397 128.28 93.2284 128.28C92.7257 128.28 92.2794 128.38 91.8894 128.579C91.508 128.778 91.2047 129.051 90.9794 129.398C90.7627 129.745 90.6544 130.139 90.6544 130.581C90.6544 131.014 90.7627 131.409 90.9794 131.764C91.2047 132.111 91.508 132.388 91.8894 132.596C92.2794 132.795 92.7257 132.895 93.2284 132.895ZM100.613 134V125.212H101.952V134H100.613ZM98.7544 128.475V127.175H104.123V128.475H98.7544ZM109.258 134.13C108.444 134.13 107.72 133.983 107.087 133.688C106.455 133.385 105.961 132.973 105.605 132.453C105.25 131.924 105.072 131.326 105.072 130.659C105.072 130.104 105.176 129.606 105.384 129.164C105.592 128.713 105.883 128.332 106.255 128.02C106.628 127.699 107.061 127.452 107.555 127.279C108.049 127.106 108.578 127.019 109.141 127.019C109.653 127.019 110.134 127.101 110.584 127.266C111.035 127.431 111.429 127.66 111.767 127.955C112.105 128.25 112.365 128.601 112.547 129.008C112.729 129.407 112.816 129.849 112.807 130.334L112.794 130.984H106.203L105.904 129.918H111.637L111.442 130.061V129.749C111.408 129.454 111.278 129.194 111.052 128.969C110.827 128.744 110.545 128.57 110.207 128.449C109.878 128.319 109.523 128.254 109.141 128.254C108.604 128.254 108.127 128.336 107.711 128.501C107.295 128.657 106.97 128.908 106.736 129.255C106.511 129.593 106.398 130.031 106.398 130.568C106.398 131.036 106.524 131.448 106.775 131.803C107.035 132.15 107.395 132.418 107.854 132.609C108.322 132.8 108.855 132.895 109.453 132.895C109.999 132.895 110.463 132.821 110.844 132.674C111.234 132.518 111.581 132.327 111.884 132.102L112.508 133.09C112.274 133.281 111.98 133.454 111.624 133.61C111.278 133.766 110.896 133.892 110.48 133.987C110.073 134.082 109.666 134.13 109.258 134.13ZM118.13 136.99C117.471 136.99 116.878 136.908 116.349 136.743C115.829 136.587 115.409 136.396 115.088 136.171L115.569 135.092C115.751 135.196 115.972 135.3 116.232 135.404C116.492 135.517 116.782 135.608 117.103 135.677C117.424 135.755 117.766 135.794 118.13 135.794C118.615 135.794 119.036 135.703 119.391 135.521C119.755 135.339 120.032 135.075 120.223 134.728C120.422 134.381 120.522 133.957 120.522 133.454V132.427L120.665 132.518C120.622 132.769 120.448 133.021 120.145 133.272C119.85 133.523 119.478 133.731 119.027 133.896C118.585 134.052 118.113 134.13 117.61 134.13C116.891 134.13 116.249 133.978 115.686 133.675C115.131 133.372 114.694 132.951 114.373 132.414C114.061 131.877 113.905 131.266 113.905 130.581C113.905 129.888 114.07 129.277 114.399 128.748C114.728 128.211 115.179 127.79 115.751 127.487C116.323 127.184 116.977 127.032 117.714 127.032C117.939 127.032 118.186 127.062 118.455 127.123C118.732 127.175 119.005 127.257 119.274 127.37C119.543 127.474 119.79 127.595 120.015 127.734C120.249 127.873 120.435 128.024 120.574 128.189C120.721 128.345 120.799 128.505 120.808 128.67L120.522 128.774V127.175H121.861V133.298C121.861 133.905 121.766 134.438 121.575 134.897C121.384 135.365 121.116 135.751 120.769 136.054C120.431 136.366 120.032 136.6 119.573 136.756C119.122 136.912 118.641 136.99 118.13 136.99ZM117.974 132.895C118.485 132.895 118.936 132.795 119.326 132.596C119.725 132.397 120.032 132.124 120.249 131.777C120.466 131.422 120.574 131.023 120.574 130.581C120.574 130.13 120.466 129.732 120.249 129.385C120.032 129.038 119.725 128.765 119.326 128.566C118.936 128.358 118.485 128.254 117.974 128.254C117.454 128.254 116.99 128.358 116.583 128.566C116.176 128.765 115.855 129.043 115.621 129.398C115.387 129.745 115.27 130.139 115.27 130.581C115.27 131.014 115.387 131.409 115.621 131.764C115.855 132.111 116.176 132.388 116.583 132.596C116.99 132.795 117.454 132.895 117.974 132.895ZM125.549 136.99L127.187 133.818V134.845L123.261 127.175H124.821L126.888 131.478C127.087 131.842 127.261 132.189 127.408 132.518C127.555 132.847 127.659 133.142 127.72 133.402L127.473 133.441C127.577 133.181 127.698 132.882 127.837 132.544C127.984 132.206 128.153 131.833 128.344 131.426L130.216 127.175H131.789L128.396 134.039L126.979 136.99H125.549Z" fill="#9B9B9B"/>
</svg>
