<svg width="247" height="25" viewBox="0 0 247 25" fill="none" xmlns="http://www.w3.org/2000/svg">
<path d="M0.747314 18.3218V5.5778C2.17232 4.99581 2.97068 4.97665 4.39531 5.5778L4.56331 10.0898L3.57931 9.7538C3.80331 8.9218 4.17931 8.1778 4.70731 7.5218C5.25131 6.8498 5.88332 6.3138 6.60332 5.9138C7.33932 5.5138 8.10732 5.3138 8.90732 5.3138C9.37132 5.3138 9.81132 5.3618 10.2273 5.4578C10.6593 5.5538 11.0273 5.6738 11.3313 5.8178C11.5314 7.88699 11.3221 8.81897 10.2753 9.9938C10.0033 9.8018 9.63531 9.6578 9.17131 9.5618C8.72331 9.4498 8.27531 9.3938 7.82731 9.3938C7.31531 9.3938 6.85931 9.4738 6.45931 9.6338C6.07531 9.7938 5.73932 10.0178 5.45131 10.3058C5.17932 10.5778 4.97131 10.8898 4.82731 11.2418C4.68331 11.5778 4.61131 11.9458 4.61131 12.3458V18.3218C3.10156 18.7132 2.25666 18.7716 0.747314 18.3218Z" fill="#F8F8F7"/>
<path d="M22.5074 18.5618C20.8914 18.5618 19.4754 18.2818 18.2594 17.7218C17.0594 17.1458 16.1234 16.3618 15.4514 15.3698C14.7954 14.3778 14.4674 13.2578 14.4674 12.0098C14.4674 11.0018 14.6594 10.0898 15.0434 9.2738C15.4434 8.4418 15.9874 7.7378 16.6754 7.1618C17.3634 6.5698 18.1634 6.1138 19.0754 5.7938C20.0034 5.4738 20.9874 5.3138 22.0274 5.3138C23.0514 5.3138 23.9954 5.4738 24.8594 5.7938C25.7394 6.1138 26.4994 6.5618 27.1394 7.1378C27.7954 7.6978 28.2914 8.3698 28.6274 9.1538C28.9794 9.9378 29.1394 10.8018 29.1074 11.7458L29.0834 12.8738H17.0594L16.5074 10.5698C20.2001 9.76615 22.2709 9.44236 25.9634 10.5698L25.5554 11.0738V10.5938C25.5074 10.1618 25.3234 9.7858 25.0034 9.4658C24.6834 9.1458 24.2674 8.8978 23.7554 8.7218C23.2594 8.5298 22.6994 8.4338 22.0754 8.4338C21.3074 8.4338 20.6194 8.5538 20.0114 8.7938C19.4034 9.0338 18.9234 9.4018 18.5714 9.8978C18.2354 10.3778 18.0674 10.9858 18.0674 11.7218C18.0674 12.4098 18.2674 13.0258 18.6674 13.5698C19.0674 14.0978 19.6434 14.5218 20.3954 14.8418C21.1474 15.1458 22.0274 15.2978 23.0354 15.2978C23.9634 15.2978 24.7314 15.1938 25.3394 14.9858C25.9474 14.7618 26.4594 14.5058 26.8754 14.2178C28.1913 14.7867 28.5471 15.3444 28.5794 16.7138C28.0354 17.1138 27.4354 17.4498 26.7794 17.7218C26.1234 17.9938 25.4274 18.2018 24.6914 18.3458C23.9714 18.4898 23.2434 18.5618 22.5074 18.5618Z" fill="#F8F8F7"/>
<path d="M34.7786 18.3218V5.5778C36.1129 4.93973 36.9242 5.02211 38.4266 5.5778L38.5706 8.6978L37.6106 8.9618C37.8186 8.3218 38.1786 7.7298 38.6906 7.1858C39.2186 6.6258 39.8586 6.1778 40.6106 5.8418C41.3786 5.4898 42.2186 5.3138 43.1306 5.3138C44.2826 5.3138 45.2426 5.5378 46.0106 5.9858C46.7946 6.4338 47.3866 7.0658 47.7866 7.8818C48.2026 8.6818 48.4106 9.6098 48.4106 10.6658V18.3218C46.9942 18.7327 46.154 18.7447 44.5706 18.3218V11.2898C44.5706 10.7298 44.4506 10.2418 44.2106 9.8258C43.9866 9.4098 43.6586 9.0898 43.2266 8.8658C42.8106 8.6418 42.3226 8.5378 41.7626 8.5538C41.2826 8.5538 40.8506 8.6418 40.4666 8.8178C40.0826 8.9778 39.7466 9.1938 39.4586 9.4658C39.1866 9.7378 38.9786 10.0338 38.8346 10.3538C38.7066 10.6738 38.6426 10.9938 38.6426 11.3138V18.3218C37.9223 18.7277 34.925 18.7506 34.7786 18.3218C34.8746 18.3218 34.4586 18.3218 34.7786 18.3218Z" fill="#F8F8F7"/>
<path d="M56.7001 18.3218V1.9538C58.2 1.48279 59.0403 1.55943 60.5401 1.9538V18.3218C58.9196 18.6444 58.1457 18.6634 56.7001 18.3218ZM53.6281 8.9378C52.9821 7.6256 52.9287 6.89019 53.6281 5.5778H64.0921C64.8418 6.98947 64.6506 7.69988 64.0921 8.9378H53.6281Z" fill="#F8F8F7"/>
<path d="M74.6684 18.5378C73.3564 18.5378 72.2044 18.2578 71.2124 17.6978C70.2204 17.1218 69.4444 16.3378 68.8844 15.3458C68.3244 14.3538 68.0444 13.2258 68.0444 11.9618C68.0444 10.6658 68.3244 9.5218 68.8844 8.5298C69.4604 7.5218 70.2444 6.7378 71.2364 6.1778C72.2444 5.6018 73.4204 5.3138 74.7644 5.3138C75.5164 5.3138 76.2124 5.4098 76.8524 5.6018C77.4924 5.7938 78.0604 6.0498 78.5564 6.3698C79.0524 6.6738 79.4524 7.0178 79.7564 7.4018C80.0764 7.7858 80.2764 8.1698 80.3564 8.5538L79.4684 8.6018V5.5778C80.9592 4.95078 81.7934 5.0151 83.2844 5.5778V18.3218C81.767 18.7287 80.9157 18.7499 79.3964 18.3218V14.9858L80.2124 15.1538C80.1484 15.5698 79.9564 15.9778 79.6364 16.3778C79.3164 16.7778 78.9084 17.1458 78.4124 17.4818C77.9164 17.8018 77.3484 18.0578 76.7084 18.2498C76.0684 18.4418 75.3884 18.5378 74.6684 18.5378ZM75.6764 15.2978C76.4764 15.2978 77.1564 15.1618 77.7164 14.8898C78.2924 14.6018 78.7324 14.2098 79.0364 13.7138C79.3564 13.2018 79.5164 12.6178 79.5164 11.9618C79.5164 11.2738 79.3564 10.6818 79.0364 10.1858C78.7324 9.6898 78.2924 9.2978 77.7164 9.0098C77.1564 8.7218 76.4764 8.5778 75.6764 8.5778C74.9084 8.5778 74.2364 8.7218 73.6604 9.0098C73.1004 9.2978 72.6604 9.6898 72.3404 10.1858C72.0204 10.6818 71.8604 11.2738 71.8604 11.9618C71.8604 12.6178 72.0204 13.2018 72.3404 13.7138C72.6604 14.2098 73.1004 14.6018 73.6604 14.8898C74.2364 15.1618 74.9084 15.2978 75.6764 15.2978Z" fill="#F8F8F7"/>
<path d="M90.2551 18.3218V0.561801C91.7556 -0.250336 92.5949 -0.12143 94.0951 0.561801V18.3218C92.5959 18.815 91.7547 18.8291 90.2551 18.3218Z" fill="#F8F8F7"/>
<path d="M107.086 18.5618C105.63 18.5618 104.326 18.2738 103.174 17.6978C102.038 17.1218 101.142 16.3378 100.486 15.3458C99.8461 14.3378 99.5261 13.2018 99.5261 11.9378C99.5261 10.6578 99.8461 9.5218 100.486 8.5298C101.142 7.5378 102.03 6.7538 103.15 6.1778C104.27 5.6018 105.542 5.3138 106.966 5.3138C108.294 5.3138 109.518 5.5058 110.638 5.8898C111.758 6.2738 112.678 6.8258 113.398 7.5458C113.158 9.25107 112.632 9.7622 111.31 10.2338C111.006 9.9458 110.63 9.6818 110.182 9.4418C109.734 9.2018 109.27 9.0098 108.79 8.8658C108.31 8.7218 107.798 8.6498 107.254 8.6498C106.486 8.6498 105.806 8.7938 105.214 9.0818C104.638 9.3538 104.19 9.7378 103.87 10.2338C103.566 10.7138 103.414 11.2818 103.414 11.9378C103.414 12.5618 103.574 13.1298 103.894 13.6418C104.214 14.1378 104.662 14.5218 105.238 14.7938C105.814 15.0658 106.486 15.2018 107.254 15.2018C107.878 15.2018 108.438 15.1458 108.934 15.0338C109.43 14.9058 109.878 14.7458 110.278 14.5538C110.678 14.3458 111.03 14.1298 111.334 13.9058C112.893 14.4656 113.341 15.0425 113.398 16.5698C112.63 17.1458 111.702 17.6258 110.614 18.0098C109.542 18.3778 108.366 18.5618 107.086 18.5618Z" fill="#F8F8F7"/>
<path d="M125.283 18.5618C123.747 18.5618 122.379 18.2818 121.179 17.7218C119.979 17.1458 119.035 16.3618 118.347 15.3698C117.675 14.3618 117.339 13.2178 117.339 11.9378C117.339 10.6418 117.675 9.4978 118.347 8.5058C119.035 7.5138 119.979 6.7378 121.179 6.1778C122.379 5.6018 123.747 5.3138 125.283 5.3138C126.851 5.3138 128.227 5.6018 129.411 6.1778C130.595 6.7378 131.523 7.5138 132.195 8.5058C132.883 9.4978 133.227 10.6418 133.227 11.9378C133.227 13.2178 132.883 14.3618 132.195 15.3698C131.523 16.3618 130.595 17.1458 129.411 17.7218C128.227 18.2818 126.851 18.5618 125.283 18.5618ZM125.307 15.2498C126.059 15.2498 126.739 15.1138 127.347 14.8418C127.971 14.5538 128.459 14.1618 128.811 13.6658C129.179 13.1698 129.355 12.5938 129.339 11.9378C129.355 11.2818 129.179 10.7058 128.811 10.2098C128.459 9.6978 127.971 9.3058 127.347 9.0338C126.739 8.7458 126.059 8.6018 125.307 8.6018C124.539 8.6018 123.843 8.7458 123.219 9.0338C122.595 9.3058 122.107 9.6978 121.755 10.2098C121.403 10.7058 121.227 11.2818 121.227 11.9378C121.227 12.5938 121.403 13.1698 121.755 13.6658C122.107 14.1618 122.595 14.5538 123.219 14.8418C123.843 15.1138 124.539 15.2498 125.307 15.2498Z" fill="#F8F8F7"/>
<path d="M138.745 18.3218V5.5778C140.17 4.80379 140.969 4.83498 142.393 5.5778L142.512 8.4098L141.745 8.1698C141.969 7.7858 142.257 7.4258 142.609 7.0898C142.961 6.7538 143.368 6.4578 143.833 6.2018C144.312 5.9298 144.824 5.7218 145.368 5.5778C145.928 5.4178 146.536 5.3378 147.193 5.3378C147.913 5.3378 148.576 5.4418 149.184 5.6498C149.809 5.8578 150.336 6.2098 150.768 6.7058C151.201 7.2018 151.521 7.8578 151.729 8.6738L150.865 8.5778L151.057 8.1938C151.312 7.8098 151.632 7.4498 152.016 7.1138C152.4 6.7778 152.833 6.4818 153.312 6.2258C153.809 5.9538 154.337 5.7378 154.896 5.5778C155.456 5.4178 156.048 5.3378 156.673 5.3378C157.904 5.3378 158.904 5.5698 159.673 6.0338C160.441 6.4818 161.001 7.1138 161.353 7.9298C161.705 8.7298 161.88 9.6498 161.88 10.6898V18.3218C160.371 18.9369 159.526 19.0629 158.016 18.3218V11.1218C158.016 10.6098 157.928 10.1698 157.753 9.8018C157.592 9.4178 157.337 9.1218 156.984 8.9138C156.632 8.6898 156.193 8.5778 155.665 8.5778C155.169 8.5778 154.712 8.6578 154.296 8.8178C153.88 8.9778 153.513 9.1938 153.193 9.4658C152.889 9.7218 152.648 10.0258 152.473 10.3778C152.312 10.7298 152.232 11.1218 152.232 11.5538V18.3218C150.722 18.8964 149.878 18.9138 148.368 18.3218V11.0978C148.368 10.6018 148.273 10.1618 148.081 9.7778C147.889 9.3938 147.592 9.0978 147.193 8.8898C146.793 8.6818 146.288 8.5778 145.68 8.5778C145.232 8.5778 144.816 8.6658 144.432 8.8418C144.048 9.0018 143.721 9.2178 143.449 9.4898C143.176 9.7458 142.968 10.0338 142.824 10.3538C142.68 10.6578 142.609 10.9538 142.609 11.2418V18.3218C141.178 18.8704 140.343 18.9506 138.745 18.3218Z" fill="#F8F8F7"/>
<path d="M168.724 23.6018V5.5538C170.146 4.83011 170.952 4.82618 172.372 5.5538L172.54 8.4338L171.796 8.2178C171.908 7.7218 172.228 7.2578 172.756 6.8258C173.284 6.3938 173.94 6.0418 174.724 5.7698C175.508 5.4818 176.364 5.3378 177.292 5.3378C178.604 5.3378 179.748 5.6178 180.724 6.1778C181.716 6.7378 182.492 7.5138 183.052 8.5058C183.612 9.4818 183.892 10.6258 183.892 11.9378C183.892 13.2338 183.604 14.3778 183.028 15.3698C182.468 16.3618 181.692 17.1378 180.7 17.6978C179.708 18.2578 178.564 18.5378 177.268 18.5378C176.324 18.5378 175.452 18.3938 174.652 18.1058C173.868 17.8178 173.212 17.4418 172.684 16.9778C172.172 16.4978 171.852 16.0098 171.724 15.5138L172.612 15.1778V23.6018H168.724ZM176.308 15.2978C177.076 15.2978 177.748 15.1618 178.324 14.8898C178.9 14.6018 179.34 14.2098 179.644 13.7138C179.964 13.2018 180.124 12.6098 180.124 11.9378C180.124 11.2658 179.964 10.6818 179.644 10.1858C179.34 9.6738 178.9 9.2818 178.324 9.0098C177.764 8.7218 177.092 8.5778 176.308 8.5778C175.54 8.5778 174.86 8.7218 174.268 9.0098C173.692 9.2978 173.252 9.6978 172.948 10.2098C172.644 10.7058 172.492 11.2818 172.492 11.9378C172.492 12.6098 172.644 13.2018 172.948 13.7138C173.252 14.2098 173.692 14.6018 174.268 14.8898C174.86 15.1618 175.54 15.2978 176.308 15.2978Z" fill="#F8F8F7"/>
<path d="M194.528 18.5378C193.216 18.5378 192.064 18.2578 191.072 17.6978C190.08 17.1218 189.304 16.3378 188.744 15.3458C188.184 14.3538 187.904 13.2258 187.904 11.9618C187.904 10.6658 188.184 9.5218 188.744 8.5298C189.32 7.5218 190.104 6.7378 191.096 6.1778C192.104 5.6018 193.28 5.3138 194.624 5.3138C195.376 5.3138 196.072 5.4098 196.712 5.6018C197.352 5.7938 197.92 6.0498 198.416 6.3698C198.912 6.6738 199.312 7.0178 199.616 7.4018C199.936 7.7858 200.136 8.1698 200.216 8.5538L199.328 8.6018V5.5778C200.817 4.83548 201.654 4.80259 203.144 5.5778V18.3218C201.544 18.8118 200.69 18.8329 199.256 18.3218V14.9858L200.072 15.1538C200.008 15.5698 199.816 15.9778 199.496 16.3778C199.176 16.7778 198.768 17.1458 198.272 17.4818C197.776 17.8018 197.208 18.0578 196.568 18.2498C195.928 18.4418 195.248 18.5378 194.528 18.5378ZM195.536 15.2978C196.336 15.2978 197.016 15.1618 197.576 14.8898C198.152 14.6018 198.592 14.2098 198.896 13.7138C199.216 13.2018 199.376 12.6178 199.376 11.9618C199.376 11.2738 199.216 10.6818 198.896 10.1858C198.592 9.6898 198.152 9.2978 197.576 9.0098C197.016 8.7218 196.336 8.5778 195.536 8.5778C194.768 8.5778 194.096 8.7218 193.52 9.0098C192.96 9.2978 192.52 9.6898 192.2 10.1858C191.88 10.6818 191.72 11.2738 191.72 11.9618C191.72 12.6178 191.88 13.2018 192.2 13.7138C192.52 14.2098 192.96 14.6018 193.52 14.8898C194.096 15.1618 194.768 15.2978 195.536 15.2978Z" fill="#F8F8F7"/>
<path d="M210.115 18.3218V5.5778C211.456 4.80524 212.254 4.83311 213.762 5.5778L213.906 8.6978L212.947 8.9618C213.155 8.3218 213.515 7.7298 214.027 7.1858C214.555 6.6258 215.195 6.1778 215.947 5.8418C216.715 5.4898 217.555 5.3138 218.467 5.3138C219.618 5.3138 220.578 5.5378 221.346 5.9858C222.13 6.4338 222.723 7.0658 223.122 7.8818C223.538 8.6818 223.747 9.6098 223.747 10.6658V18.3218C222.322 18.6574 221.5 18.7433 219.906 18.3218V11.2898C219.906 10.7298 219.786 10.2418 219.546 9.8258C219.322 9.4098 218.995 9.0898 218.562 8.8658C218.146 8.6418 217.658 8.5378 217.098 8.5538C216.618 8.5538 216.187 8.6418 215.803 8.8178C215.419 8.9778 215.082 9.1938 214.794 9.4658C214.522 9.7378 214.314 10.0338 214.171 10.3538C214.042 10.6738 213.979 10.9938 213.979 11.3138V18.3218C213.263 18.5544 210.252 18.5956 210.115 18.3218C210.21 18.3218 209.794 18.3218 210.115 18.3218Z" fill="#F8F8F7"/>
<path d="M232.159 23.8418L235.663 17.0258L235.519 18.9218L228.511 5.5778C230.246 4.65852 231.216 4.74467 232.951 5.5778L236.167 12.2978C236.423 12.7778 236.655 13.2738 236.863 13.7858C237.087 14.2818 237.279 14.7698 237.439 15.2498L236.623 15.3938C236.783 15.0098 236.975 14.5538 237.199 14.0258C237.423 13.4978 237.655 12.9618 237.895 12.4178L240.919 5.5778C242.646 4.86543 243.609 4.87626 245.335 5.5778L238.759 18.3938L236.071 23.8418H232.159Z" fill="#F8F8F7"/>
<path d="M99 22.8218L245 22.8218" stroke="#F8F8F7" stroke-width="3" stroke-linecap="round"/>
</svg>
