<svg width="38" height="38" viewBox="0 0 38 38" fill="none" xmlns="http://www.w3.org/2000/svg">
<rect width="38" height="38" rx="5" fill="#E17242"/>
<path d="M6 23.1877V10.4437C7.425 9.86172 8.22337 9.84255 9.648 10.4437L9.816 14.9557L8.832 14.6197C9.056 13.7877 9.432 13.0437 9.96 12.3877C10.504 11.7157 11.136 11.1797 11.856 10.7797C12.592 10.3797 13.36 10.1797 14.16 10.1797C14.624 10.1797 15.064 10.2277 15.48 10.3237C15.912 10.4197 16.28 10.5397 16.584 10.6837C16.7841 12.7529 16.5748 13.6849 15.528 14.8597C15.256 14.6677 14.888 14.5237 14.424 14.4277C13.976 14.3157 13.528 14.2597 13.08 14.2597C12.568 14.2597 12.112 14.3397 11.712 14.4997C11.328 14.6597 10.992 14.8837 10.704 15.1717C10.432 15.4437 10.224 15.7557 10.08 16.1077C9.936 16.4437 9.864 16.8117 9.864 17.2117V23.1877C8.35424 23.5791 7.50935 23.6375 6 23.1877Z" fill="#F8F8F7"/>
<path d="M26.188 23.4278C24.732 23.4278 23.428 23.1398 22.276 22.5638C21.14 21.9878 20.244 21.2038 19.588 20.2118C18.948 19.2038 18.628 18.0678 18.628 16.8038C18.628 15.5238 18.948 14.3878 19.588 13.3958C20.244 12.4038 21.132 11.6198 22.252 11.0438C23.372 10.4678 24.644 10.1798 26.068 10.1798C27.396 10.1798 28.62 10.3718 29.74 10.7558C30.86 11.1398 31.78 11.6918 32.5 12.4118C32.2603 14.1171 31.7339 14.6282 30.412 15.0998C30.108 14.8118 29.732 14.5478 29.284 14.3078C28.836 14.0678 28.372 13.8758 27.892 13.7318C27.412 13.5878 26.9 13.5158 26.356 13.5158C25.588 13.5158 24.908 13.6598 24.316 13.9478C23.74 14.2198 23.292 14.6038 22.972 15.0998C22.668 15.5798 22.516 16.1478 22.516 16.8038C22.516 17.4278 22.676 17.9958 22.996 18.5078C23.316 19.0038 23.764 19.3878 24.34 19.6598C24.916 19.9318 25.588 20.0678 26.356 20.0678C26.98 20.0678 27.54 20.0118 28.036 19.8998C28.532 19.7718 28.98 19.6118 29.38 19.4198C29.78 19.2118 30.132 18.9958 30.436 18.7718C31.995 19.3316 32.4433 19.9085 32.5 21.4358C31.732 22.0118 30.804 22.4918 29.716 22.8758C28.644 23.2438 27.468 23.4278 26.188 23.4278Z" fill="#F8F8F7"/>
<path d="M19 26.866H32" stroke="#F8F8F7" stroke-width="3" stroke-linecap="round"/>
</svg>
