<svg width="178" height="178" viewBox="0 0 178 178" fill="none" xmlns="http://www.w3.org/2000/svg">
<circle cx="89" cy="87" r="73.5" fill="black" fill-opacity="0.5" stroke="url(#paint0_linear_173_2)"/>
<g filter="url(#filter0_dii_173_2)">
<circle cx="89" cy="85" r="54" fill="url(#paint1_linear_173_2)" fill-opacity="0.9" shape-rendering="crispEdges"/>
</g>
<g opacity="0.7">
<g filter="url(#filter1_ii_173_2)">
<path d="M60.783 79.646C60.035 79.646 59.419 79.8 58.935 80.108C58.451 80.416 58.209 80.8853 58.209 81.516C58.209 82.132 58.451 82.6087 58.935 82.946C59.419 83.2687 60.4456 83.6207 62.015 84.002C63.599 84.3833 64.787 84.9187 65.579 85.608C66.3856 86.2973 66.789 87.3167 66.789 88.666C66.789 90.0007 66.283 91.086 65.271 91.922C64.259 92.758 62.9316 93.176 61.289 93.176C58.8836 93.176 56.7496 92.3473 54.887 90.69L56.515 88.732C58.0696 90.0813 59.683 90.756 61.355 90.756C62.191 90.756 62.851 90.58 63.335 90.228C63.8336 89.8613 64.083 89.3847 64.083 88.798C64.083 88.1967 63.8483 87.7347 63.379 87.412C62.9243 87.0747 62.1323 86.774 61.003 86.51C59.8736 86.2313 59.0156 85.982 58.429 85.762C57.8423 85.5273 57.3216 85.2267 56.867 84.86C55.9576 84.1707 55.503 83.1147 55.503 81.692C55.503 80.2693 56.0163 79.1767 57.043 78.414C58.0843 77.6367 59.3676 77.248 60.893 77.248C61.8756 77.248 62.851 77.4093 63.819 77.732C64.787 78.0547 65.623 78.5093 66.327 79.096L64.941 81.054C64.4863 80.6433 63.8703 80.306 63.093 80.042C62.3156 79.778 61.5456 79.646 60.783 79.646Z" fill="#391100"/>
<path d="M75.3664 79.998V93H72.7704V79.998H68.1064V77.622H80.0304V79.998H75.3664Z" fill="#391100"/>
<path d="M84.5737 89.502L83.0337 93H80.2617L87.0377 77.622H89.8097L96.5857 93H93.8137L92.2737 89.502H84.5737ZM91.2177 87.104L88.4237 80.768L85.6297 87.104H91.2177Z" fill="#391100"/>
<path d="M110.56 82.616C110.56 85.1533 109.453 86.752 107.238 87.412L111.264 93H107.964L104.29 87.83H100.88V93H98.2839V77.622H104.004C106.351 77.622 108.03 78.018 109.042 78.81C110.054 79.602 110.56 80.8707 110.56 82.616ZM104.114 85.476C105.581 85.476 106.578 85.2487 107.106 84.794C107.634 84.3393 107.898 83.6133 107.898 82.616C107.898 81.604 107.627 80.9147 107.084 80.548C106.541 80.1667 105.573 79.976 104.18 79.976H100.88V85.476H104.114Z" fill="#391100"/>
<path d="M119.658 79.998V93H117.062V79.998H112.398V77.622H124.322V79.998H119.658Z" fill="#391100"/>
</g>
<path d="M55.253 81.692C55.253 83.17 55.728 84.3087 56.7129 85.0569C57.1878 85.4394 57.7295 85.7514 58.3361 85.9941L58.3361 85.9942L58.3412 85.9961C58.9416 86.2212 59.8108 86.4733 60.9431 86.7527L60.9431 86.7527L60.9461 86.7534C62.0697 87.0161 62.8189 87.3077 63.23 87.6128L63.2299 87.6129L63.2373 87.618C63.6345 87.891 63.833 88.2735 63.833 88.798C63.833 89.3 63.6257 89.7037 63.1873 90.0262C62.7601 90.3367 62.1582 90.506 61.355 90.506C59.7562 90.506 58.199 89.8625 56.6788 88.5432L56.486 88.3758L56.3227 88.5722L54.6947 90.5302L54.5402 90.7161L54.7208 90.8768C56.6274 92.5732 58.8199 93.426 61.289 93.426C62.9747 93.426 64.363 92.9963 65.4302 92.1147C66.5008 91.2303 67.039 90.0738 67.039 88.666C67.039 87.2654 66.6183 86.1678 65.7422 85.4187C64.9078 84.6927 63.6766 84.1449 62.0737 83.759C61.2934 83.5694 60.6525 83.3881 60.149 83.2155C59.6434 83.0421 59.2908 82.8822 59.0758 82.7394C58.6637 82.4513 58.459 82.0536 58.459 81.516C58.459 80.9607 58.6654 80.5758 59.0692 80.3189C59.5026 80.0431 60.0683 79.896 60.783 79.896C61.5163 79.896 62.2591 80.0228 63.0126 80.2787C63.768 80.5353 64.351 80.858 64.7734 81.2395L64.9823 81.4282L65.145 81.1984L66.531 79.2404L66.6645 79.0518L66.487 78.9039C65.7565 78.2952 64.8922 77.8262 63.898 77.4948C62.9055 77.164 61.9035 76.998 60.893 76.998C59.3235 76.998 57.9853 77.3987 56.8936 78.2135C55.7959 79.0291 55.253 80.2006 55.253 81.692ZM75.3664 93.25H75.6164V93V80.248H80.0304H80.2804V79.998V77.622V77.372H80.0304H68.1064H67.8564V77.622V79.998V80.248H68.1064H72.5204V93V93.25H72.7704H75.3664ZM83.0337 93.25H83.1968L83.2625 93.1007L84.7368 89.752H92.1106L93.5849 93.1007L93.6506 93.25H93.8137H96.5857H96.9691L96.8145 92.8992L90.0385 77.5212L89.9728 77.372H89.8097H87.0377H86.8747L86.809 77.5212L80.033 92.8992L79.8784 93.25H80.2617H83.0337ZM107.641 87.5433C108.631 87.1894 109.401 86.6309 109.935 85.8603C110.525 85.0081 110.81 83.9202 110.81 82.616C110.81 80.8232 110.288 79.4681 109.196 78.6131C108.116 77.7681 106.366 77.372 104.004 77.372H98.2839H98.0339V77.622V93V93.25H98.2839H100.88H101.13V93V88.08H104.161L107.76 93.1448L107.835 93.25H107.964H111.264H111.752L111.467 92.8538L107.641 87.5433ZM106.94 80.7525L106.94 80.7526L106.944 80.7551C107.386 81.054 107.648 81.6398 107.648 82.616C107.648 83.5729 107.395 84.2151 106.943 84.6045C106.721 84.7957 106.382 84.9532 105.906 85.0617C105.432 85.1699 104.836 85.226 104.114 85.226H101.13V80.226H104.18C105.568 80.226 106.466 80.4192 106.94 80.7525ZM119.658 93.25H119.908V93V80.248H124.322H124.572V79.998V77.622V77.372H124.322H112.398H112.148V77.622V79.998V80.248H112.398H116.812V93V93.25H117.062H119.658ZM86.0132 86.854L88.4237 81.3876L90.8343 86.854H86.0132Z" stroke="#260B00" stroke-opacity="0.6" stroke-width="0.5"/>
</g>
<defs>
<filter id="filter0_dii_173_2" x="0" y="0" width="178" height="178" filterUnits="userSpaceOnUse" color-interpolation-filters="sRGB">
<feFlood flood-opacity="0" result="BackgroundImageFix"/>
<feColorMatrix in="SourceAlpha" type="matrix" values="0 0 0 0 0 0 0 0 0 0 0 0 0 0 0 0 0 0 127 0" result="hardAlpha"/>
<feOffset dy="4"/>
<feGaussianBlur stdDeviation="17.5"/>
<feComposite in2="hardAlpha" operator="out"/>
<feColorMatrix type="matrix" values="0 0 0 0 0 0 0 0 0 0 0 0 0 0 0 0 0 0 0.25 0"/>
<feBlend mode="normal" in2="BackgroundImageFix" result="effect1_dropShadow_173_2"/>
<feBlend mode="normal" in="SourceGraphic" in2="effect1_dropShadow_173_2" result="shape"/>
<feColorMatrix in="SourceAlpha" type="matrix" values="0 0 0 0 0 0 0 0 0 0 0 0 0 0 0 0 0 0 127 0" result="hardAlpha"/>
<feOffset dy="-4"/>
<feGaussianBlur stdDeviation="7.5"/>
<feComposite in2="hardAlpha" operator="arithmetic" k2="-1" k3="1"/>
<feColorMatrix type="matrix" values="0 0 0 0 0 0 0 0 0 0 0 0 0 0 0 0 0 0 0.75 0"/>
<feBlend mode="normal" in2="shape" result="effect2_innerShadow_173_2"/>
<feColorMatrix in="SourceAlpha" type="matrix" values="0 0 0 0 0 0 0 0 0 0 0 0 0 0 0 0 0 0 127 0" result="hardAlpha"/>
<feOffset dy="4"/>
<feGaussianBlur stdDeviation="7.5"/>
<feComposite in2="hardAlpha" operator="arithmetic" k2="-1" k3="1"/>
<feColorMatrix type="matrix" values="0 0 0 0 1 0 0 0 0 1 0 0 0 0 1 0 0 0 0.15 0"/>
<feBlend mode="normal" in2="effect2_innerShadow_173_2" result="effect3_innerShadow_173_2"/>
</filter>
<filter id="filter1_ii_173_2" x="54.1934" y="75.748" width="70.6284" height="21.928" filterUnits="userSpaceOnUse" color-interpolation-filters="sRGB">
<feFlood flood-opacity="0" result="BackgroundImageFix"/>
<feBlend mode="normal" in="SourceGraphic" in2="BackgroundImageFix" result="shape"/>
<feColorMatrix in="SourceAlpha" type="matrix" values="0 0 0 0 0 0 0 0 0 0 0 0 0 0 0 0 0 0 127 0" result="hardAlpha"/>
<feOffset dy="-4"/>
<feGaussianBlur stdDeviation="0.5"/>
<feComposite in2="hardAlpha" operator="arithmetic" k2="-1" k3="1"/>
<feColorMatrix type="matrix" values="0 0 0 0 0 0 0 0 0 0 0 0 0 0 0 0 0 0 0.25 0"/>
<feBlend mode="normal" in2="shape" result="effect1_innerShadow_173_2"/>
<feColorMatrix in="SourceAlpha" type="matrix" values="0 0 0 0 0 0 0 0 0 0 0 0 0 0 0 0 0 0 127 0" result="hardAlpha"/>
<feOffset dy="4"/>
<feGaussianBlur stdDeviation="7.5"/>
<feComposite in2="hardAlpha" operator="arithmetic" k2="-1" k3="1"/>
<feColorMatrix type="matrix" values="0 0 0 0 1 0 0 0 0 1 0 0 0 0 1 0 0 0 0.15 0"/>
<feBlend mode="normal" in2="effect1_innerShadow_173_2" result="effect2_innerShadow_173_2"/>
</filter>
<linearGradient id="paint0_linear_173_2" x1="89" y1="13" x2="89" y2="161" gradientUnits="userSpaceOnUse">
<stop stop-color="#3A3A3A"/>
<stop offset="0.1875" stop-color="#2C2C2C" stop-opacity="0.857396"/>
<stop offset="0.291667" stop-opacity="0.63"/>
<stop offset="0.609375" stop-color="#2C2C2C" stop-opacity="0.857396"/>
<stop offset="1" stop-color="#414141" stop-opacity="0.964349"/>
</linearGradient>
<linearGradient id="paint1_linear_173_2" x1="70" y1="36" x2="108" y2="134" gradientUnits="userSpaceOnUse">
<stop stop-color="#E17242"/>
<stop offset="1" stop-color="#8E4322" stop-opacity="0.8"/>
</linearGradient>
</defs>
</svg>
